# xmcd CD database file
#
# Track frame offsets:
#	150
#	17350
#	37813
#	61272
#	79995
#	104345
#	123600
#	141247
#	164307
#	182327
#
# Disc length: 2668 seconds
#
# Revision: 2
# Processed by: cddbd v1.5.2PL0 Copyright (c) Steve Scherf et al.
# Submitted via: CDex 1.70beta2
#
DISCID=780a6a0a
DTITLE=Robert Earl Keen - Picnic
DYEAR=1997
DGENRE=Country
TTITLE0=Undone
TTITLE1=Over The Watefall
TTITLE2=Levelland
TTITLE3=I Wonder Where My Baby Is Tonight
TTITLE4=Oh Rosie
TTITLE5=Runnin' With The Night
TTITLE6=The Coming Home Of The Son and Brother
TTITLE7=Shades Of Gray
TTITLE8=Fourth Of July
TTITLE9=Then Came Lo Mein
EXTD=YEAR: 1997
EXTT0=
EXTT1=
EXTT2=
EXTT3=
EXTT4=
EXTT5=
EXTT6=
EXTT7=
EXTT8=
EXTT9=(w/ Margo Timmons)
PLAYORDER=
